<?xml version="1.0" standalone="no"?>
<!DOCTYPE svg PUBLIC "-//W3C//DTD SVG 20010904//EN"
 "http://www.w3.org/TR/2001/REC-SVG-20010904/DTD/svg10.dtd">
<svg version="1.0" xmlns="http://www.w3.org/2000/svg"
 width="700.000000pt" height="700.000000pt" viewBox="0 0 700.000000 700.000000"
 preserveAspectRatio="xMidYMid meet">
<metadata>
Created by potrace 1.14, written by Peter Selinger 2001-2017
</metadata>
<g transform="translate(0.000000,700.000000) scale(0.100000,-0.100000)"
fill="#000000" stroke="none">
<path d="M2129 6996 c-2 -2 -36 -7 -75 -10 -39 -4 -82 -9 -95 -12 -13 -2 -42
-7 -64 -10 -102 -14 -327 -78 -461 -132 -570 -228 -1050 -711 -1272 -1282 -44
-114 -95 -278 -108 -350 -4 -25 -8 -47 -9 -50 -3 -9 -15 -74 -20 -105 -3 -16
-8 -61 -12 -100 -10 -91 -10 -2799 -1 -2887 20 -179 81 -445 127 -553 5 -11
24 -56 42 -100 102 -245 257 -483 450 -688 84 -90 243 -228 329 -287 19 -13
37 -27 40 -30 8 -8 168 -104 233 -139 130 -70 370 -161 504 -192 125 -28 226
-46 328 -57 92 -9 2777 -9 2875 0 41 5 87 10 103 13 15 3 39 7 55 10 15 3 45
8 67 11 68 11 275 73 385 116 361 143 701 393 941 693 56 70 169 229 169 238
0 3 17 34 38 68 120 200 239 532 269 754 3 22 10 60 16 85 13 55 20 2822 7
2920 -5 36 -11 85 -14 110 -3 25 -8 56 -11 70 -3 14 -8 39 -11 55 -37 213
-145 497 -266 703 -69 118 -121 192 -233 331 -94 117 -283 289 -443 401 -93
65 -119 80 -259 156 -186 101 -496 200 -718 229 -27 4 -61 9 -75 12 -28 7
-2824 15 -2831 9z"/>
</g>
</svg>
